# xmcd CD database file
#
# Track frame offsets:
#	150
#	17127
#	36542
#	52540
#	69992
#	96302
#	112880
#	136142
#	153592
#	181502
#	197077
#	207982
#	223082
#
# Disc length: 3537 seconds
#
# Revision: 2
# Processed by: cddbd v1.5PL3 Copyright (c) Steve Scherf et al.
# Submitted via: CDex 1.51
#
DISCID=af0dcf0d
DTITLE=Steve Vai - Mystery Tracks - Archives Vol. 3
DYEAR=2003
DGENRE=Instrumental
TTITLE0=Speed
TTITLE1=Just Cartilage
TTITLE2=San-San-Nana-Byoushi
TTITLE3=Sofa
TTITLE4=Essence
TTITLE5=Wipe Out 2000
TTITLE6=Feathers
TTITLE7=Opposites Attract Part 1
TTITLE8=Misfits
TTITLE9=Selfless Love
TTITLE10=Maple Leafs
TTITLE11=The Murder
TTITLE12=Opposites Attract Part 2 (The Indulgent Version)
EXTD=YEAR: 2003
EXTT0=
EXTT1=
EXTT2=
EXTT3=
EXTT4=
EXTT5=
EXTT6=
EXTT7=
EXTT8=
EXTT9=
EXTT10=
EXTT11=
EXTT12=
PLAYORDER=
